# Blender v2.77 (sub 0) OBJ File: 'human.blend'
# www.blender.org
v 0.119222 -0.710870 -0.230000
v -0.106723 -0.710870 -0.230000
v 0.119222 -0.001578 -0.230000
v -0.106723 -0.001578 -0.230000
v 0.119222 -0.189185 -0.230000
v -0.106723 -0.189185 -0.230000
v 0.119222 -0.189185 -0.398031
v 0.119222 -0.001578 -0.325058
v -0.106723 -0.189185 -0.398031
v -0.106723 -0.001578 -0.325058
v -0.106723 -0.189185 -0.278004
v 0.119222 -0.189185 -0.278004
v 0.119222 -0.846418 -0.398031
v -0.106723 -0.846418 -0.398031
v -0.106723 -0.846418 -0.278004
v 0.119222 -0.846418 -0.278004
v 0.119222 -1.477260 -0.273997
v -0.106723 -1.477260 -0.273997
v -0.106723 -1.477260 -0.043997
v 0.119222 -1.477260 -0.043997
v -0.061441 -0.001578 -0.230000
v 0.062735 -0.001578 -0.230000
v -0.061441 -0.001578 -0.091057
v 0.062735 -0.001578 -0.091057
v -0.116539 0.111827 -0.183300
v 0.131206 0.111827 -0.183300
v -0.066253 0.379472 -0.131730
v 0.087613 0.379472 -0.131730
v 0.119222 -0.710870 0.230000
v -0.106723 -0.710870 0.230000
v 0.119222 -0.001578 0.230000
v -0.106723 -0.001578 0.230000
v 0.119222 -0.710870 0.000000
v -0.106723 -0.710870 0.000000
v 0.119222 -0.001578 0.000000
v -0.106723 -0.001578 0.000000
v 0.119222 -0.189185 0.230000
v -0.106723 -0.189185 0.230000
v 0.119222 -0.189185 0.398031
v 0.119222 -0.001578 0.325058
v -0.106723 -0.189185 0.398031
v -0.106723 -0.001578 0.325058
v -0.106723 -0.189185 0.278004
v 0.119222 -0.189185 0.278004
v 0.119222 -0.846418 0.398031
v -0.106723 -0.846418 0.398031
v -0.106723 -0.846418 0.278004
v 0.119222 -0.846418 0.278004
v 0.119222 -1.477260 0.273997
v -0.106723 -1.477260 0.273997
v -0.106723 -1.477260 0.043997
v 0.119222 -1.477260 0.043997
v -0.061441 -0.001578 0.230000
v -0.061441 -0.001578 0.000000
v 0.062735 -0.001578 0.000000
v 0.062735 -0.001578 0.230000
v -0.061441 -0.001578 0.091057
v 0.062735 -0.001578 0.091057
v -0.116539 0.111827 0.183300
v -0.116539 0.111827 0.000000
v 0.131206 0.111827 0.000000
v 0.131206 0.111827 0.183300
v -0.066253 0.379472 0.131730
v -0.066253 0.379472 0.000000
v 0.087613 0.379472 0.000000
v 0.087613 0.379472 0.131730
vt 0.1651 0.6161
vt 0.0697 0.5378
vt 0.1651 0.3200
vt 0.7542 0.2176
vt 0.6605 0.0000
vt 0.7542 0.0000
vt 0.5908 0.5373
vt 0.4953 0.6155
vt 0.4953 0.3197
vt 0.0937 0.7520
vt 0.1125 0.7520
vt 0.1125 0.7900
vt 0.5908 0.3197
vt 0.5136 0.0000
vt 0.6090 0.0000
vt 0.1640 0.8481
vt 0.1875 0.8878
vt 0.0937 0.8878
vt 0.6605 0.8125
vt 0.7542 0.8927
vt 0.6605 0.8927
vt 0.0303 0.6161
vt 0.0000 0.5378
vt 0.0498 0.5378
vt 0.6605 0.5373
vt 0.6107 0.2631
vt 0.6605 0.2631
vt 0.6107 0.5373
vt 0.5908 0.6155
vt 0.6114 0.7100
vt 0.6313 0.6155
vt 0.6313 0.7100
vt 0.8538 0.9868
vt 0.8040 0.8924
vt 0.8538 0.8924
vt 0.7542 0.5384
vt 0.7542 0.8125
vt 0.0937 0.6161
vt 0.0000 0.8899
vt 0.0000 0.6161
vt 0.0498 0.2634
vt 0.0937 0.8878
vt 0.1875 0.9839
vt 0.0937 0.9839
vt 0.0697 0.3200
vt 0.1469 0.0000
vt 0.6605 0.5384
vt 0.6605 0.2176
vt 0.5177 0.6155
vt 0.4240 0.9333
vt 0.4240 0.6155
vt 0.2618 0.9329
vt 0.1875 0.8880
vt 0.2902 0.8880
vt 0.1640 0.7900
vt 0.1875 0.8481
vt 0.1125 0.8481
vt 0.2083 0.7751
vt 0.2721 0.7751
vt 0.8862 0.1596
vt 0.9240 0.2079
vt 0.8479 0.2079
vt 0.9617 0.0000
vt 0.9240 0.0490
vt 0.9240 0.0000
vt 0.0000 1.0000
vt 0.0638 0.9450
vt 0.0638 1.0000
vt 0.9786 0.1596
vt 0.9240 0.1596
vt 0.8693 0.3188
vt 0.2605 0.5378
vt 0.2605 0.6161
vt 0.7542 0.5380
vt 0.8479 0.3207
vt 0.8479 0.5380
vt 0.3999 0.6155
vt 0.3999 0.5373
vt 0.1125 0.7139
vt 0.0937 0.6558
vt 0.3999 0.3197
vt 0.4771 0.0000
vt 0.1875 0.6161
vt 0.1875 0.6558
vt 0.1640 0.6558
vt 0.8479 0.5380
vt 0.7542 0.6186
vt 0.7542 0.5380
vt 0.2804 0.5378
vt 0.3000 0.6161
vt 0.3302 0.2631
vt 0.3800 0.5373
vt 0.3302 0.5373
vt 0.3605 0.6155
vt 0.6512 0.7100
vt 0.6313 0.6155
vt 0.6512 0.6155
vt 0.8040 0.8924
vt 0.7542 0.9868
vt 0.7542 0.8924
vt 0.8479 0.8924
vt 0.8479 0.6186
vt 0.6114 0.8897
vt 0.5177 0.6155
vt 0.6114 0.6155
vt 0.2804 0.2634
vt 0.3302 0.5378
vt 0.6114 0.8897
vt 0.5177 0.9858
vt 0.5177 0.8897
vt 0.1834 0.0000
vt 0.2605 0.3200
vt 0.7542 0.3207
vt 0.8479 0.0000
vt 0.4240 0.9341
vt 0.3302 0.6155
vt 0.8763 0.4761
vt 0.9507 0.4320
vt 0.9278 0.4761
vt 0.1875 0.7520
vt 0.1640 0.7139
vt 0.1125 0.6558
vt 0.8479 0.4320
vt 0.9298 0.3188
vt 0.9617 0.1596
vt 0.9240 0.1596
vt 0.8862 0.0000
vt 0.1875 0.7278
vt 0.2618 0.7751
vt 0.2103 0.7751
vt 0.0000 0.8899
vt 0.0638 0.8899
vt 0.2083 0.6161
vt 0.2902 0.7278
vt 0.8693 0.1596
vt 0.8479 0.0490
vt 0.9786 0.3188
vt 1.0000 0.2079
vt 0.0697 0.6161
vt 0.0937 0.8481
vt 0.6302 0.6155
vt 0.6114 0.6155
vt 0.8040 0.9868
vt 0.6605 0.5384
vt 0.0937 0.8899
vt 0.0000 0.2634
vt 0.1875 0.8878
vt 0.0515 0.0000
vt 0.7542 0.5384
vt 0.5177 0.9333
vt 0.2103 0.9329
vt 0.1640 0.7520
vt 1.0000 0.0490
vt 0.0000 0.9450
vt 0.9240 0.3188
vt 0.3817 0.0000
vt 0.0937 0.6161
vt 0.3800 0.2631
vt 0.6313 0.7100
vt 0.8040 0.9868
vt 0.7542 0.8924
vt 0.5177 0.8897
vt 0.3302 0.2634
vt 0.6114 0.9858
vt 0.2788 0.0000
vt 0.7542 0.0000
vt 0.3302 0.9341
vt 0.8660 0.3188
vt 0.2721 0.6161
vn -1.0000 -0.0000 -0.0000
vn 0.0000 0.0000 -1.0000
vn 1.0000 0.0000 0.0000
vn 0.0000 1.0000 -0.0000
vn 0.0000 0.3625 -0.9320
vn 0.0000 -1.0000 -0.0000
vn -0.0000 -0.0000 1.0000
vn 0.0000 0.0573 -0.9984
vn 0.0000 -0.0573 0.9984
vn 0.0000 -0.6310 -0.7758
vn 0.0000 0.1892 -0.9819
vn -0.8995 -0.4370 -0.0000
vn 0.8561 -0.5169 0.0000
vn 0.9870 0.1608 0.0000
vn -0.9828 0.1847 -0.0000
vn 0.0000 0.3625 0.9320
vn 0.0000 0.0573 0.9984
vn 0.0000 -0.0573 -0.9984
vn 0.0000 -0.6310 0.7758
vn 0.0000 0.1892 0.9819
s off
f 36/1/1 6/2/1 34/3/1
f 1/4/2 6/5/2 5/6/2
f 5/7/3 35/8/3 33/9/3
f 36/10/4 54/11/4 23/12/4
f 1/13/3 20/14/3 17/15/3
f 22/16/4 8/17/4 10/18/4
f 7/19/5 10/20/5 8/21/5
f 10/22/1 9/23/1 11/24/1
f 7/25/3 16/26/3 13/27/3
f 5/7/3 12/28/3 3/29/3
f 5/30/6 11/31/6 12/32/6
f 15/33/6 13/34/6 16/35/6
f 7/19/2 14/36/2 9/37/2
f 11/38/7 16/39/7 12/40/7
f 9/23/1 15/41/1 11/24/1
f 20/42/6 18/43/6 17/44/6
f 2/45/1 19/46/1 34/3/1
f 1/4/8 18/47/8 2/48/8
f 34/49/9 20/50/9 33/51/9
f 24/52/10 25/53/10 26/54/10
f 22/16/4 24/55/4 3/56/4
f 21/57/4 24/55/4 22/16/4
f 26/54/11 27/58/11 28/59/11
f 23/60/12 60/61/12 25/62/12
f 24/63/13 61/64/13 55/65/13
f 27/66/4 65/67/4 28/68/4
f 61/64/14 28/69/14 65/70/14
f 60/61/15 27/71/15 25/62/15
f 38/72/1 32/73/1 36/1/1
f 38/74/7 29/75/7 37/76/7
f 35/8/3 31/77/3 37/78/3
f 57/79/4 36/10/4 32/80/4
f 29/81/3 52/82/3 33/9/3
f 40/83/4 31/84/4 56/85/4
f 42/86/16 39/87/16 40/88/16
f 43/89/1 42/90/1 32/73/1
f 45/91/3 44/92/3 39/93/3
f 40/94/3 44/92/3 31/77/3
f 37/95/6 43/96/6 38/97/6
f 45/98/6 47/99/6 48/100/6
f 46/101/7 39/87/7 41/102/7
f 48/103/2 43/104/2 44/105/2
f 47/106/1 41/107/1 43/89/1
f 50/108/6 52/109/6 49/110/6
f 51/111/1 30/112/1 34/3/1
f 30/113/17 49/114/17 29/75/17
f 52/115/18 34/116/18 33/51/18
f 58/117/19 59/118/19 57/119/19
f 35/120/4 58/121/4 31/84/4
f 56/85/4 57/79/4 53/122/4
f 62/123/20 63/124/20 59/118/20
f 57/125/12 60/61/12 54/126/12
f 61/64/13 58/127/13 55/65/13
f 60/128/2 55/129/2 54/130/2
f 65/67/4 63/131/4 66/132/4
f 64/133/2 61/134/2 60/128/2
f 61/64/14 66/135/14 62/136/14
f 63/137/15 60/61/15 59/138/15
f 2/45/1 34/3/1 6/2/1
f 36/1/1 4/139/1 6/2/1
f 1/4/2 2/48/2 6/5/2
f 33/9/3 1/13/3 5/7/3
f 5/7/3 3/29/3 35/8/3
f 23/12/4 21/57/4 4/140/4
f 4/140/4 36/10/4 23/12/4
f 1/13/3 33/9/3 20/14/3
f 10/18/4 4/140/4 21/57/4
f 22/16/4 3/56/4 8/17/4
f 10/18/4 21/57/4 22/16/4
f 7/19/5 9/37/5 10/20/5
f 11/24/1 6/2/1 4/139/1
f 4/139/1 10/22/1 11/24/1
f 7/25/3 12/28/3 16/26/3
f 8/141/3 3/29/3 12/28/3
f 12/28/3 7/25/3 8/141/3
f 5/30/6 6/142/6 11/31/6
f 15/33/6 14/143/6 13/34/6
f 7/19/2 13/144/2 14/36/2
f 11/38/7 15/145/7 16/39/7
f 9/23/1 14/146/1 15/41/1
f 20/42/6 19/147/6 18/43/6
f 2/45/1 18/148/1 19/46/1
f 1/4/8 17/149/8 18/47/8
f 34/49/9 19/150/9 20/50/9
f 24/52/10 23/151/10 25/53/10
f 35/120/4 3/56/4 24/55/4
f 24/55/4 55/152/4 35/120/4
f 21/57/4 23/12/4 24/55/4
f 26/54/11 25/53/11 27/58/11
f 23/60/12 54/126/12 60/61/12
f 24/63/13 26/153/13 61/64/13
f 27/66/4 64/154/4 65/67/4
f 61/64/14 26/153/14 28/69/14
f 60/61/15 64/155/15 27/71/15
f 36/1/1 34/3/1 38/72/1
f 30/112/1 38/72/1 34/3/1
f 38/74/7 30/113/7 29/75/7
f 37/78/3 29/81/3 33/9/3
f 33/9/3 35/8/3 37/78/3
f 32/80/4 53/122/4 57/79/4
f 57/79/4 54/11/4 36/10/4
f 29/81/3 49/156/3 52/82/3
f 53/122/4 32/80/4 42/157/4
f 42/157/4 40/83/4 56/85/4
f 56/85/4 53/122/4 42/157/4
f 42/86/16 41/102/16 39/87/16
f 32/73/1 38/72/1 43/89/1
f 43/89/1 41/107/1 42/90/1
f 45/91/3 48/158/3 44/92/3
f 37/78/3 31/77/3 44/92/3
f 40/94/3 39/93/3 44/92/3
f 37/95/6 44/159/6 43/96/6
f 45/98/6 46/160/6 47/99/6
f 46/101/7 45/161/7 39/87/7
f 48/103/2 47/162/2 43/104/2
f 47/106/1 46/163/1 41/107/1
f 50/108/6 51/164/6 52/109/6
f 51/111/1 50/165/1 30/112/1
f 30/113/17 50/166/17 49/114/17
f 52/115/18 51/167/18 34/116/18
f 58/117/19 62/123/19 59/118/19
f 56/85/4 31/84/4 58/121/4
f 35/120/4 55/152/4 58/121/4
f 56/85/4 58/121/4 57/79/4
f 62/123/20 66/168/20 63/124/20
f 57/125/12 59/138/12 60/61/12
f 61/64/13 62/136/13 58/127/13
f 60/128/2 61/134/2 55/129/2
f 65/67/4 64/154/4 63/131/4
f 64/133/2 65/169/2 61/134/2
f 61/64/14 65/70/14 66/135/14
f 63/137/15 64/155/15 60/61/15
