# Blender v2.77 (sub 0) OBJ File: 'pinaplle.blend'
# www.blender.org
v 0.000000 -0.500844 0.000000
v 0.159989 -0.353960 0.116238
v -0.061109 -0.353961 0.188078
v -0.197757 -0.353959 0.000000
v -0.061109 -0.353961 -0.188078
v 0.159989 -0.353960 -0.116238
v 0.061109 -0.038832 0.188078
v -0.159989 -0.038832 0.116238
v -0.159989 -0.038832 -0.116238
v 0.061109 -0.038832 -0.188078
v 0.197757 -0.038834 0.000000
v 0.000000 0.193307 -0.000000
v -0.035919 -0.496098 0.110549
v 0.094039 -0.496098 0.068322
v 0.058120 -0.381624 0.178872
v 0.188078 -0.381623 0.000000
v 0.094039 -0.496098 -0.068322
v -0.116238 -0.496097 0.000000
v -0.152158 -0.381623 0.110549
v -0.035919 -0.496098 -0.110549
v -0.152158 -0.381623 -0.110549
v 0.058120 -0.381624 -0.178872
v 0.210278 -0.196396 0.068322
v 0.210278 -0.196396 -0.068322
v 0.000000 -0.196396 0.221099
v 0.129959 -0.196396 0.178873
v -0.210278 -0.196396 0.068322
v -0.129959 -0.196396 0.178873
v -0.129959 -0.196396 -0.178873
v -0.210278 -0.196396 -0.068322
v 0.129959 -0.196396 -0.178873
v 0.000000 -0.196396 -0.221099
v 0.152158 -0.011169 0.110549
v -0.058120 -0.011169 0.178872
v -0.188078 -0.011169 0.000000
v -0.058120 -0.011169 -0.178872
v 0.152158 -0.011169 -0.110549
v 0.036290 0.053138 0.110687
v 0.117440 0.053136 -0.000000
v -0.095011 0.053138 0.068407
v -0.095011 0.053138 -0.068407
v 0.036290 0.053138 -0.110687
v 0.075422 0.123222 -0.000000
v 0.023306 0.123223 0.071084
v -0.061017 0.123223 0.043932
v -0.061017 0.123223 -0.043932
v 0.023306 0.123223 -0.071084
v 0.098728 0.053137 -0.071084
v -0.037711 0.053138 -0.115016
v -0.122034 0.053138 -0.000000
v -0.037711 0.053138 0.115016
v 0.098728 0.053137 0.071084
v 0.111157 0.305462 -0.080033
v 0.111157 0.305462 -0.080033
v 0.111157 0.305462 -0.080033
v 0.153669 0.282099 -0.056338
v 0.153669 0.282099 -0.056338
v 0.153669 0.282099 -0.056338
v 0.153669 0.282099 0.056338
v 0.153669 0.282099 0.056338
v 0.153669 0.282099 0.056338
v 0.101553 0.282101 0.127423
v 0.101553 0.282101 0.127423
v 0.101553 0.282101 0.127423
v -0.006582 0.282101 0.162241
v -0.006582 0.282101 0.162241
v -0.006582 0.282101 0.162241
v 0.111157 0.305462 0.080033
v 0.111157 0.305462 0.080033
v 0.111157 0.305462 0.080033
v -0.042459 0.305463 0.129496
v -0.042459 0.305463 0.129496
v -0.042459 0.305463 0.129496
v -0.090905 0.282101 0.135089
v -0.090905 0.282101 0.135089
v -0.090905 0.282101 0.135089
v -0.157736 0.282101 0.043932
v -0.157736 0.282101 0.043932
v -0.157736 0.282101 0.043932
v -0.137397 0.305463 -0.000000
v -0.137397 0.305463 -0.000000
v -0.137397 0.305463 -0.000000
v -0.157736 0.282101 -0.043932
v -0.157736 0.282101 -0.043932
v -0.157736 0.282101 -0.043932
v -0.090905 0.282101 -0.135089
v -0.090905 0.282101 -0.135089
v -0.090905 0.282101 -0.135089
v -0.042459 0.305463 -0.129496
v -0.042459 0.305463 -0.129496
v -0.042459 0.305463 -0.129496
v -0.006582 0.282101 -0.162241
v -0.006582 0.282101 -0.162241
v -0.006582 0.282101 -0.162241
v 0.101553 0.282101 -0.127423
v 0.101553 0.282101 -0.127423
v 0.101553 0.282101 -0.127423
v 0.089582 0.403585 0.064499
v 0.089582 0.403585 0.064499
v 0.089582 0.403585 0.064499
v -0.034218 0.403586 0.104362
v -0.034218 0.403586 0.104362
v -0.034218 0.403586 0.104362
v -0.110729 0.403586 -0.000000
v -0.110729 0.403586 -0.000000
v -0.110729 0.403586 -0.000000
v -0.034218 0.403586 -0.104362
v -0.034218 0.403586 -0.104362
v -0.034218 0.403586 -0.104362
v 0.089582 0.403585 -0.064499
v 0.089582 0.403585 -0.064499
v 0.089582 0.403585 -0.064499
vt 0.0000 0.0000
vt 1.0000 0.0000
vt 1.0000 1.0000
vt 0.0000 0.0000
vt 1.0000 1.0000
vt 1.0000 0.0000
vt 1.0000 1.0000
vt 1.0000 0.0000
vt 1.0000 1.0000
vt 1.0000 0.0000
vt 1.0000 1.0000
vt 1.0000 0.0000
vt 1.0000 1.0000
vt 0.0000 0.0000
vt 1.0000 0.0000
vt 1.0000 1.0000
vt 0.0000 0.0000
vt 1.0000 0.0000
vt 1.0000 1.0000
vt 0.0000 0.0000
vt 1.0000 0.0000
vt 1.0000 1.0000
vt 0.0000 0.0000
vt 1.0000 0.0000
vt 1.0000 1.0000
vt 1.0000 0.0000
vt 1.0000 1.0000
vt 1.0000 0.0000
vt 1.0000 1.0000
vt 1.0000 0.0000
vt 1.0000 1.0000
vt 1.0000 0.0000
vt 1.0000 1.0000
vt 1.0000 0.0000
vt 1.0000 1.0000
vt 0.0000 0.0000
vt 1.0000 0.0000
vt 1.0000 1.0000
vt 0.0000 0.0000
vt 1.0000 0.0000
vt 1.0000 1.0000
vt 0.0000 0.0000
vt 1.0000 0.0000
vt 1.0000 1.0000
vt 0.0000 0.0000
vt 1.0000 0.0000
vt 1.0000 1.0000
vt 0.0000 0.0000
vt 1.0000 0.0000
vt 1.0000 1.0000
vt 0.0000 0.0000
vt 1.0000 1.0000
vt 0.0000 1.0000
vt 0.0000 1.0000
vt 0.0000 0.0000
vt 0.0000 0.0000
vt 1.0000 0.0000
vt 0.0000 0.0000
vt 1.0000 1.0000
vt 0.0000 1.0000
vt 0.0000 1.0000
vt 0.0000 0.0000
vt 0.0000 0.0000
vt 1.0000 0.0000
vt 0.0000 0.0000
vt 1.0000 1.0000
vt 0.0000 1.0000
vt 0.0000 1.0000
vt 0.0000 0.0000
vt 0.0000 0.0000
vt 1.0000 0.0000
vt 0.0000 0.0000
vt 1.0000 1.0000
vt 0.0000 1.0000
vt 0.0000 1.0000
vt 0.0000 0.0000
vt 0.0000 0.0000
vt 1.0000 0.0000
vt 0.0000 0.0000
vt 1.0000 1.0000
vt 0.0000 1.0000
vt 0.0000 1.0000
vt 0.0000 0.0000
vt 0.0000 0.0000
vt 1.0000 0.0000
vt 0.0000 0.0000
vt 1.0000 1.0000
vt 1.0000 1.0000
vt 0.0000 0.0000
vt 0.0000 0.0000
vt 1.0000 1.0000
vt 1.0000 1.0000
vt 0.0000 0.0000
vt 0.0000 0.0000
vt 1.0000 1.0000
vt 1.0000 1.0000
vt 0.0000 0.0000
vt 0.0000 0.0000
vt 1.0000 1.0000
vt 1.0000 1.0000
vt 0.0000 0.0000
vt 0.0000 0.0000
vt 1.0000 1.0000
vt 1.0000 1.0000
vt 0.0000 0.0000
vt 1.0000 0.0000
vt 0.0000 0.0000
vt 1.0000 0.0000
vt 1.0000 0.0000
vt 0.0000 0.0000
vt 1.0000 0.0000
vt 1.0000 0.0000
vt 0.0000 0.0000
vt 1.0000 0.0000
vt 1.0000 0.0000
vt 0.0000 0.0000
vt 1.0000 0.0000
vt 1.0000 0.0000
vt 0.0000 0.0000
vt 1.0000 0.0000
vt 0.0000 0.0000
vt 1.0000 1.0000
vt 1.0000 1.0000
vt 0.0000 0.0000
vt 1.0000 1.0000
vt 1.0000 1.0000
vt 0.0000 0.0000
vt 1.0000 1.0000
vt 1.0000 1.0000
vt 0.0000 0.0000
vt 1.0000 0.0000
vt 0.0000 0.0000
vt 1.0000 0.0000
vt 1.0000 1.0000
vt 1.0000 1.0000
vt 0.0000 0.0000
vt 1.0000 1.0000
vt 0.0000 1.0000
vt 1.0000 1.0000
vt 0.0000 1.0000
vt 0.0000 0.0000
vt 1.0000 1.0000
vt 0.0000 1.0000
vt 0.0000 0.0000
vt 1.0000 1.0000
vt 0.0000 1.0000
vt 1.0000 1.0000
vt 0.0000 1.0000
vt 1.0000 1.0000
vt 0.0000 1.0000
vt 0.0000 0.0000
vt 1.0000 1.0000
vt 0.0000 1.0000
vt 1.0000 1.0000
vt 0.0000 1.0000
vt 1.0000 1.0000
vt 0.0000 1.0000
vt 0.0000 0.0000
vt 1.0000 1.0000
vt 0.0000 1.0000
vt 1.0000 1.0000
vt 0.0000 1.0000
vt 1.0000 1.0000
vt 0.0000 1.0000
vt 1.0000 1.0000
vt 0.0000 1.0000
vt 1.0000 1.0000
vt 0.0000 1.0000
vt 1.0000 1.0000
vt 0.0000 1.0000
vt 0.0000 0.0000
vt 1.0000 0.0000
vt 1.0000 1.0000
vt 0.0000 1.0000
vt 1.0000 1.0000
vt 0.0000 1.0000
vt 0.0000 0.0000
vt 1.0000 0.0000
vt 1.0000 1.0000
vt 0.0000 1.0000
vt 1.0000 1.0000
vt 0.0000 1.0000
vt 0.0000 0.0000
vt 1.0000 0.0000
vt 1.0000 1.0000
vt 0.0000 1.0000
vt 1.0000 1.0000
vt 0.0000 1.0000
vt 0.0000 0.0000
vt 1.0000 0.0000
vt 1.0000 1.0000
vt 0.0000 1.0000
vt 1.0000 1.0000
vt 0.0000 1.0000
vt 0.0000 0.0000
vt 1.0000 0.0000
vt 1.0000 1.0000
vt 1.0000 1.0000
vt 0.0000 1.0000
vt 0.0000 1.0000
vt 0.0000 0.0000
vt 1.0000 0.0000
vt 1.0000 1.0000
vt 0.0000 1.0000
vt 1.0000 1.0000
vt 0.0000 1.0000
vt 0.0000 0.0000
vt 1.0000 0.0000
vt 1.0000 1.0000
vt 0.0000 1.0000
vt 1.0000 1.0000
vt 0.0000 1.0000
vt 0.0000 0.0000
vt 1.0000 0.0000
vt 1.0000 1.0000
vt 0.0000 1.0000
vt 1.0000 1.0000
vt 0.0000 1.0000
vt 0.0000 0.0000
vt 1.0000 0.0000
vt 1.0000 1.0000
vt 1.0000 1.0000
vt 0.0000 1.0000
vt 0.0000 1.0000
vt 0.0000 0.0000
vt 1.0000 0.0000
vt 1.0000 1.0000
vt 0.0000 1.0000
vt 1.0000 1.0000
vt 0.0000 1.0000
vt 0.0000 0.0000
vt 1.0000 0.0000
vt 1.0000 1.0000
vt 0.0000 1.0000
vt 1.0000 1.0000
vt 0.0000 1.0000
vt 0.0000 0.0000
vt 1.0000 0.0000
vt 1.0000 1.0000
vt 1.0000 1.0000
vt 0.0000 1.0000
vt 0.0000 1.0000
vt 0.0000 0.0000
vt 1.0000 0.0000
vt 1.0000 1.0000
vt 0.0000 1.0000
vt 1.0000 1.0000
vt 0.0000 1.0000
vt 0.0000 0.0000
vt 1.0000 0.0000
vt 1.0000 1.0000
vt 0.0000 1.0000
vt 1.0000 1.0000
vt 0.0000 1.0000
vt 0.0000 0.0000
vt 1.0000 0.0000
vt 1.0000 1.0000
vt 1.0000 1.0000
vt 0.0000 1.0000
vt 0.0000 1.0000
vt 0.0000 0.0000
vt 1.0000 0.0000
vt 1.0000 1.0000
vt 0.0000 0.0000
vt 1.0000 1.0000
vt 0.0000 1.0000
vt 0.0000 1.0000
vt 0.0000 0.0000
vt 1.0000 0.0000
vt 1.0000 1.0000
vt 1.0000 1.0000
vt 0.0000 1.0000
vt 0.0000 1.0000
vt 0.0000 0.0000
vt 1.0000 0.0000
vt 1.0000 1.0000
vt 1.0000 1.0000
vt 0.0000 1.0000
vt 0.0000 1.0000
vt 0.0000 0.0000
vt 1.0000 0.0000
vt 1.0000 1.0000
vt 1.0000 1.0000
vt 0.0000 1.0000
vt 0.0000 1.0000
vt 0.0000 0.0000
vt 1.0000 0.0000
vt 1.0000 1.0000
vt 0.0000 1.0000
vt 1.0000 1.0000
vt 0.0000 1.0000
vt 1.0000 0.0000
vt 1.0000 0.0000
vt 1.0000 0.0000
vt 1.0000 0.0000
vt 1.0000 0.0000
vt 1.0000 0.0000
vt 1.0000 0.0000
vt 1.0000 0.0000
vt 1.0000 0.0000
vt 1.0000 0.0000
vt 1.0000 0.0000
vt 1.0000 0.0000
vt 1.0000 0.0000
vt 1.0000 0.0000
vt 1.0000 0.0000
vt 1.0000 0.0000
vn 0.0156 -0.9987 0.0479
vn 0.8170 -0.4845 0.3127
vn -0.0408 -0.9987 0.0296
vn -0.0408 -0.9987 -0.0296
vn 0.0156 -0.9987 -0.0479
vn 0.9365 -0.2146 0.2774
vn 0.0256 -0.2146 0.9764
vn -0.9207 -0.2146 0.3261
vn -0.5946 -0.2146 -0.7749
vn 0.5532 -0.2146 -0.8050
vn 0.8065 -0.0792 0.5859
vn -0.3080 -0.0792 0.9481
vn -0.9969 -0.0792 0.0000
vn -0.3080 -0.0792 -0.9481
vn 0.8065 -0.0792 -0.5859
vn 0.3644 0.6552 0.6618
vn -0.5174 0.6531 0.5530
vn -0.6867 0.6522 -0.3211
vn 0.0943 0.6558 -0.7491
vn 0.7453 0.6509 -0.1445
vn 0.0000 0.0000 1.0000
vn 0.6977 0.6924 -0.1837
vn 0.3644 0.6552 -0.6618
vn 0.0000 0.4051 0.9143
vn 0.0419 0.6973 -0.7156
vn -0.5174 0.6531 -0.5530
vn -0.6726 0.6907 -0.2657
vn -0.6867 0.6522 0.3211
vn -0.4528 0.6965 0.5567
vn 0.0943 0.6558 0.7491
vn 0.3858 0.6938 0.6082
vn 0.7453 0.6509 0.1445
vn 0.9207 0.2146 -0.3261
vn 0.8033 0.1190 -0.5836
vn 0.5946 0.2146 -0.7749
vn -0.0256 0.2146 -0.9764
vn -0.3068 0.1190 -0.9443
vn -0.5532 0.2146 -0.8050
vn -0.9365 0.2146 -0.2774
vn -0.9929 0.1190 0.0000
vn -0.9365 0.2146 0.2774
vn -0.5532 0.2146 0.8050
vn -0.3068 0.1190 0.9443
vn -0.0256 0.2146 0.9764
vn 0.5946 0.2146 0.7749
vn 0.8033 0.1190 0.5836
vn 0.9207 0.2146 0.3261
vn 0.3080 0.0792 -0.9481
vn 0.3068 -0.1190 -0.9443
vn 0.0256 -0.2146 -0.9764
vn -0.8065 0.0792 -0.5859
vn -0.8033 -0.1190 -0.5836
vn -0.9207 -0.2146 -0.3261
vn -0.8065 0.0792 0.5859
vn -0.8033 -0.1190 0.5836
vn -0.5946 -0.2146 0.7749
vn 0.3080 0.0792 0.9481
vn 0.3068 -0.1190 0.9443
vn 0.5532 -0.2146 0.8050
vn 0.9969 0.0792 0.0000
vn 0.9929 -0.1190 0.0000
vn 0.9365 -0.2146 -0.2774
vn 0.5499 -0.4845 -0.6804
vn 0.2388 -0.6348 -0.7349
vn -0.0450 -0.4845 -0.8736
vn -0.4771 -0.4845 -0.7332
vn -0.6251 -0.6348 -0.4542
vn -0.8448 -0.4845 -0.2272
vn -0.8448 -0.4845 0.2272
vn -0.6251 -0.6348 0.4542
vn -0.4771 -0.4845 0.7332
vn 0.8170 -0.4845 -0.3127
vn 0.7727 -0.6348 0.0000
vn 0.0504 -0.9987 0.0000
vn -0.0450 -0.4845 0.8736
vn 0.2388 -0.6348 0.7349
vn 0.5499 -0.4845 0.6804
vn 0.0000 -0.1233 0.9924
vn 0.0000 0.0000 -1.0000
vn 0.0000 0.2163 -0.9763
vn 0.0000 0.1706 -0.9853
vn -0.8330 0.2322 -0.5021
vn 0.3858 0.6938 -0.6082
vn -0.7296 0.2319 0.6434
vn -0.4528 0.6965 -0.5567
vn 0.3796 0.2311 0.8958
vn -0.6726 0.6907 0.2657
vn 0.9685 0.2327 -0.0881
vn 0.0419 0.6973 0.7156
vn 0.2145 0.2309 -0.9490
vn 0.6977 0.6924 0.1837
vn 0.7942 -0.1741 0.5822
vn 0.9392 -0.0341 -0.3416
vn -0.8330 0.2322 0.5021
vn -0.3019 -0.1732 0.9375
vn 0.6094 -0.0340 0.7921
vn -0.7296 0.2319 -0.6434
vn -0.9846 -0.1746 0.0000
vn -0.5580 -0.0340 0.8292
vn 0.3796 0.2311 -0.8958
vn -0.3019 -0.1732 -0.9375
vn -0.9592 -0.0342 -0.2808
vn 0.9685 0.2327 0.0881
vn 0.7942 -0.1741 -0.5822
vn -0.0315 -0.0339 -0.9989
vn 0.2145 0.2309 0.9490
vn 0.9392 -0.0341 0.3416
vn -0.7441 0.3855 0.5456
vn 0.9453 -0.2108 -0.2489
vn 0.3037 0.1821 0.9352
vn 0.3037 0.1821 -0.9352
vn 0.9453 -0.2108 0.2489
vn 0.5237 -0.2096 0.8257
vn -0.7914 0.1830 0.5833
vn 0.0571 -0.2091 0.9762
vn 0.9830 0.1835 0.0025
vn -0.0315 -0.0339 0.9989
vn -0.7441 0.3855 -0.5456
vn -0.9592 -0.0342 0.2808
vn 0.2830 0.3839 -0.8789
vn -0.6170 -0.2098 0.7585
vn -0.7943 0.1830 -0.5793
vn -0.9092 -0.2107 0.3592
vn 0.2991 0.1821 0.9367
vn -0.5580 -0.0340 -0.8292
vn 0.9223 0.3865 0.0000
vn -0.9092 -0.2107 -0.3592
vn 0.2991 0.1821 -0.9367
vn -0.6170 -0.2098 -0.7585
vn -0.7943 0.1830 0.5793
vn 0.6094 -0.0340 -0.7921
vn 0.2830 0.3839 0.8789
vn 0.0571 -0.2091 -0.9762
vn 0.9830 0.1835 -0.0025
vn 0.5237 -0.2096 -0.8257
vn -0.7914 0.1830 -0.5833
vn -0.8475 0.2118 0.4867
vn 0.1956 0.2105 -0.9578
vn -0.7193 0.2114 -0.6618
vn 0.9711 0.2122 -0.1092
vn 0.4001 0.2107 -0.8919
vn 0.4001 0.2107 0.8919
vn 0.9711 0.2122 0.1092
vn -0.7193 0.2114 0.6618
vn -0.8475 0.2118 -0.4867
vn 0.1956 0.2105 0.9578
s off
f 1/1/1 14/2/1 13/3/1
f 2/4/2 14/2/2 16/5/2
f 1/1/3 13/6/3 18/7/3
f 1/1/4 18/8/4 20/9/4
f 1/1/5 20/10/5 17/11/5
f 2/4/6 16/12/6 23/13/6
f 3/14/7 15/15/7 25/16/7
f 4/17/8 19/18/8 27/19/8
f 5/20/9 21/21/9 29/22/9
f 6/23/10 22/24/10 31/25/10
f 2/4/11 23/26/11 26/27/11
f 3/14/12 25/28/12 28/29/12
f 4/17/13 27/30/13 30/31/13
f 5/20/14 29/32/14 32/33/14
f 6/23/15 31/34/15 24/35/15
f 7/36/16 33/37/16 38/38/16
f 8/39/17 34/40/17 40/41/17
f 9/42/18 35/43/18 41/44/18
f 10/45/19 36/46/19 42/47/19
f 11/48/20 37/49/20 39/50/20
f 48/51/21 57/52/21 58/53/21
f 37/49/22 48/54/22 39/55/22
f 37/56/23 10/57/23 42/47/23
f 49/58/24 92/59/24 94/60/24
f 36/46/25 49/61/25 42/62/25
f 36/63/26 9/64/26 41/44/26
f 50/65/21 83/66/21 85/67/21
f 35/43/27 50/68/27 41/69/27
f 35/70/28 8/71/28 40/41/28
f 51/72/21 74/73/21 76/74/21
f 34/40/29 51/75/29 40/76/29
f 34/77/30 7/78/30 38/38/30
f 52/79/21 62/80/21 64/81/21
f 33/37/31 52/82/31 38/83/31
f 33/84/32 11/85/32 39/50/32
f 24/86/33 37/49/33 11/87/33
f 24/86/34 31/34/34 37/88/34
f 31/89/35 10/57/35 37/88/35
f 32/90/36 36/46/36 10/91/36
f 32/90/37 29/32/37 36/92/37
f 29/93/38 9/64/38 36/92/38
f 30/94/39 35/43/39 9/95/39
f 30/94/40 27/30/40 35/96/40
f 27/97/41 8/71/41 35/96/41
f 28/98/42 34/40/42 8/99/42
f 28/98/43 25/28/43 34/100/43
f 25/101/44 7/78/44 34/100/44
f 26/102/45 33/37/45 7/103/45
f 26/102/46 23/26/46 33/104/46
f 23/105/47 11/85/47 33/104/47
f 31/89/48 32/106/48 10/91/48
f 31/89/49 22/24/49 32/33/49
f 22/107/50 5/108/50 32/33/50
f 29/93/51 30/109/51 9/95/51
f 29/93/52 21/21/52 30/31/52
f 21/110/53 4/111/53 30/31/53
f 27/97/54 28/112/54 8/99/54
f 27/97/55 19/18/55 28/29/55
f 19/113/56 3/114/56 28/29/56
f 25/101/57 26/115/57 7/103/57
f 25/101/58 15/15/58 26/27/58
f 15/116/59 2/117/59 26/27/59
f 23/105/60 24/118/60 11/87/60
f 23/105/61 16/12/61 24/35/61
f 16/119/62 6/120/62 24/35/62
f 17/121/63 22/24/63 6/122/63
f 17/121/64 20/10/64 22/123/64
f 20/124/65 5/108/65 22/123/65
f 20/124/66 21/21/66 5/125/66
f 20/124/67 18/8/67 21/126/67
f 18/127/68 4/111/68 21/126/68
f 18/127/69 19/18/69 4/128/69
f 18/127/70 13/6/70 19/129/70
f 13/130/71 3/114/71 19/129/71
f 16/119/72 17/131/72 6/122/72
f 16/119/73 14/2/73 17/11/73
f 14/132/74 1/133/74 17/11/74
f 13/130/75 15/15/75 3/134/75
f 13/130/76 14/2/76 15/135/76
f 14/132/77 2/117/77 15/135/77
f 44/136/21 98/137/21 100/138/21
f 52/79/21 69/139/21 70/140/21
f 43/141/21 59/142/21 61/143/21
f 45/144/21 102/145/21 103/146/21
f 51/72/78 72/147/78 73/148/78
f 44/136/79 67/149/79 65/150/79
f 46/151/21 105/152/21 106/153/21
f 50/65/21 81/154/21 82/155/21
f 45/144/21 79/156/21 77/157/21
f 47/158/21 108/159/21 109/160/21
f 49/58/21 90/161/21 91/162/21
f 46/151/21 88/163/21 86/164/21
f 43/141/21 112/165/21 110/166/21
f 48/51/21 54/167/21 55/168/21
f 47/158/21 97/169/21 95/170/21
f 53/171/21 55/172/21 54/167/21
f 43/141/21 55/173/21 53/174/21
f 47/158/21 53/175/21 54/176/21
f 56/177/21 58/178/21 57/52/21
f 39/55/21 58/179/21 56/180/21
f 43/141/21 56/181/21 57/182/21
f 59/183/21 60/184/21 61/185/21
f 39/55/21 61/185/21 60/186/21
f 52/79/21 60/187/21 59/188/21
f 63/189/21 64/190/21 62/80/21
f 38/83/21 64/191/21 63/192/21
f 44/136/21 63/193/21 62/194/21
f 67/195/21 66/196/21 65/197/21
f 51/72/21 66/198/21 67/199/21
f 38/83/80 65/197/80 66/200/80
f 68/201/21 70/202/21 69/139/21
f 44/136/21 70/203/21 68/204/21
f 43/141/21 68/205/21 69/206/21
f 71/207/21 73/208/21 72/147/21
f 45/144/21 73/209/21 71/210/21
f 44/136/81 71/211/81 72/212/81
f 75/213/21 76/214/21 74/73/21
f 40/76/21 76/215/21 75/216/21
f 45/144/21 75/217/21 74/218/21
f 79/219/21 78/220/21 77/221/21
f 50/65/21 78/222/21 79/223/21
f 40/76/21 77/221/21 78/224/21
f 80/225/21 82/226/21 81/154/21
f 46/151/21 82/227/21 80/228/21
f 45/144/21 80/229/21 81/230/21
f 84/231/21 85/232/21 83/66/21
f 41/69/21 85/233/21 84/234/21
f 46/151/21 84/235/21 83/236/21
f 88/237/21 87/238/21 86/239/21
f 49/58/21 87/240/21 88/241/21
f 41/69/21 86/239/21 87/242/21
f 89/243/21 91/244/21 90/161/21
f 47/158/21 91/245/21 89/246/21
f 46/151/21 89/247/21 90/248/21
f 93/249/21 94/250/21 92/59/21
f 42/62/21 94/251/21 93/252/21
f 47/158/79 93/253/79 92/254/79
f 97/255/21 96/256/21 95/257/21
f 48/51/21 96/258/21 97/259/21
f 42/62/21 95/257/21 96/260/21
f 100/261/21 98/262/21 99/263/21
f 12/264/21 100/265/21 99/266/21
f 43/141/21 99/263/21 98/267/21
f 103/268/21 102/269/21 101/270/21
f 12/264/21 103/271/21 101/272/21
f 44/136/21 101/270/21 102/273/21
f 106/274/21 105/275/21 104/276/21
f 12/264/21 106/277/21 104/278/21
f 45/144/21 104/276/21 105/279/21
f 109/280/21 108/281/21 107/282/21
f 12/264/21 109/283/21 107/284/21
f 46/151/21 107/282/21 108/285/21
f 110/286/21 112/287/21 111/288/21
f 47/158/21 111/288/21 112/289/21
f 12/264/21 110/290/21 111/291/21
f 48/51/82 43/292/82 57/52/82
f 37/49/83 42/47/83 48/54/83
f 49/58/84 47/293/84 92/59/84
f 36/46/85 41/44/85 49/61/85
f 50/65/86 46/294/86 83/66/86
f 35/43/87 40/41/87 50/68/87
f 51/72/88 45/295/88 74/73/88
f 34/40/89 38/38/89 51/75/89
f 52/79/90 44/296/90 62/80/90
f 33/37/91 39/50/91 52/82/91
f 44/136/92 43/292/92 98/137/92
f 52/79/93 43/292/93 69/139/93
f 43/141/94 52/297/94 59/142/94
f 45/144/95 44/296/95 102/145/95
f 51/72/96 44/296/96 72/147/96
f 44/136/97 51/298/97 67/149/97
f 46/151/98 45/295/98 105/152/98
f 50/65/99 45/295/99 81/154/99
f 45/144/100 50/299/100 79/156/100
f 47/158/101 46/294/101 108/159/101
f 49/58/102 46/294/102 90/161/102
f 46/151/103 49/300/103 88/163/103
f 43/141/104 47/293/104 112/165/104
f 48/51/105 47/293/105 54/167/105
f 47/158/106 48/301/106 97/169/106
f 43/141/107 48/301/107 55/173/107
f 47/158/108 43/292/108 53/175/108
f 39/55/109 48/301/109 58/179/109
f 43/141/110 39/302/110 56/181/110
f 39/55/111 43/292/111 61/185/111
f 52/79/112 39/302/112 60/187/112
f 38/83/113 52/297/113 64/191/113
f 44/136/114 38/303/114 63/193/114
f 51/72/115 38/303/115 66/198/115
f 38/83/116 44/296/116 65/197/116
f 44/136/117 52/297/117 70/203/117
f 43/141/118 44/296/118 68/205/118
f 45/144/119 51/298/119 73/209/119
f 44/136/120 45/295/120 71/211/120
f 40/76/121 51/298/121 76/215/121
f 45/144/122 40/304/122 75/217/122
f 50/65/123 40/304/123 78/222/123
f 40/76/124 45/295/124 77/221/124
f 46/151/125 50/299/125 82/227/125
f 45/144/126 46/294/126 80/229/126
f 41/69/127 50/299/127 85/233/127
f 46/151/128 41/305/128 84/235/128
f 49/58/129 41/305/129 87/240/129
f 41/69/130 46/294/130 86/239/130
f 47/158/131 49/300/131 91/245/131
f 46/151/132 47/293/132 89/247/132
f 42/62/133 49/300/133 94/251/133
f 47/158/134 42/306/134 93/253/134
f 48/51/135 42/306/135 96/258/135
f 42/62/136 47/293/136 95/257/136
f 12/264/137 44/296/137 100/265/137
f 43/141/138 12/307/138 99/263/138
f 12/264/139 45/295/139 103/271/139
f 44/136/140 12/307/140 101/270/140
f 12/264/141 46/294/141 106/277/141
f 45/144/142 12/307/142 104/276/142
f 12/264/143 47/293/143 109/283/143
f 46/151/144 12/307/144 107/282/144
f 47/158/145 12/307/145 111/288/145
f 12/264/146 43/292/146 110/290/146
