# Blender v2.77 (sub 0) OBJ File: 'torch2.blend'
# www.blender.org
v 0.050000 -0.500000 -0.050000
v 0.050000 -0.500000 0.050000
v -0.050000 -0.500000 0.050000
v -0.050000 -0.500000 -0.050000
v 0.050000 0.234431 -0.050000
v 0.050000 0.234431 0.050000
v -0.050000 0.234431 0.050000
v -0.050000 0.234431 -0.050000
v 0.050000 0.134564 -0.050000
v 0.050000 0.134564 0.050000
v -0.050000 0.134564 0.050000
v -0.050000 0.134564 -0.050000
v 0.064333 0.170927 -0.064332
v 0.064332 0.170927 0.064333
v -0.064332 0.170927 0.064332
v -0.064332 0.170927 -0.064332
v 0.064332 -0.165964 -0.064332
v 0.064332 -0.165964 0.064332
v -0.064332 -0.165964 0.064332
v -0.064332 -0.165964 -0.064332
v 0.050000 -0.132224 -0.050000
v 0.050000 -0.132224 0.050000
v -0.050000 -0.132224 0.050000
v -0.050000 -0.132224 -0.050000
vt 0.9059 0.9072
vt 0.6288 1.0019
vt 0.5941 0.9072
vt 0.5941 0.0908
vt 0.9059 0.0908
vt 0.6288 0.0020
vt 0.8712 0.0020
vt 0.8712 1.0019
vt 0.5000 1.0000
vt 0.2500 0.7500
vt 0.5000 0.7500
vt 0.2500 1.0000
vt 0.5000 0.7500
vt 0.5000 1.0000
vt 0.2500 1.0000
vt 0.0000 0.7500
vt 0.2500 0.7500
vt 0.2500 1.0000
vt 0.0000 0.7500
vt 0.2500 0.7500
vt 0.0000 1.0000
vt 0.2500 0.7500
vt 0.2500 1.0000
vt 0.0000 0.0000
vt 0.2500 1.0000
vt 0.0000 1.0000
vt 0.2500 1.0000
vt 0.0000 0.7500
vt 0.2500 0.7500
vt 0.8712 1.0019
vt 0.5941 0.9072
vt 0.9059 0.9072
vt 0.8712 1.0019
vt 0.5941 0.9072
vt 0.9059 0.9072
vt 0.5941 0.0908
vt 0.9059 0.0908
vt 0.5941 0.0908
vt 0.9059 0.0908
vt 0.5941 0.9072
vt 0.8712 1.0019
vt 0.6288 1.0019
vt 0.8712 0.0020
vt 0.6288 0.0020
vt 0.8712 0.0020
vt 0.6288 0.0020
vt 0.5941 0.0908
vt 0.9059 0.9072
vt 0.2500 1.0000
vt 0.0000 0.0000
vt 0.2500 0.0000
vt 0.2500 1.0000
vt 0.0000 0.0000
vt 0.2500 0.0000
vt 0.2500 1.0000
vt 0.0000 0.0001
vt 0.2500 0.0000
vt 0.6288 0.0020
vt 0.9059 0.0908
vt 0.2500 1.0000
vt 0.2500 0.7500
vt 0.0000 1.0000
vt 0.0000 1.0000
vt 0.0000 0.7500
vt 0.2500 0.0000
vt 0.0000 1.0000
vt 0.6288 1.0019
vt 0.6288 1.0019
vt 0.0000 1.0000
vt 0.0000 1.0000
vt 0.0000 0.9999
vt 0.8712 0.0020
vn 0.9303 0.3667 0.0000
vn -1.0000 -0.0000 -0.0000
vn 0.9204 -0.3910 0.0000
vn 0.0000 -1.0000 0.0000
vn 0.0000 1.0000 -0.0000
vn 1.0000 -0.0000 0.0000
vn -0.0000 -0.0000 1.0000
vn 0.0000 0.0000 -1.0000
vn 0.0000 0.3667 -0.9303
vn -0.9303 0.3667 -0.0000
vn -0.0000 0.3667 0.9303
vn 0.0000 -0.3910 -0.9204
vn -0.9204 -0.3910 -0.0000
vn -0.0000 -0.3910 0.9204
s off
f 15/1/1 12/2/1 16/3/1
f 15/1/2 20/4/2 19/5/2
f 19/5/3 24/6/3 23/7/3
f 15/1/1 11/8/1 12/2/1
f 15/1/2 16/3/2 20/4/2
f 19/5/3 20/4/3 24/6/3
f 1/9/4 3/10/4 4/11/4
f 8/12/5 6/13/5 5/14/5
f 5/15/6 10/16/6 9/17/6
f 6/18/7 11/19/7 10/20/7
f 11/21/2 8/22/2 12/23/2
f 1/24/8 24/25/8 21/26/8
f 9/27/8 8/28/8 5/29/8
f 10/30/9 15/31/9 14/32/9
f 9/33/10 14/34/10 13/35/10
f 13/35/6 18/36/6 17/37/6
f 14/32/7 19/38/7 18/39/7
f 13/40/11 12/41/11 9/42/11
f 22/43/12 19/38/12 23/44/12
f 21/45/13 18/36/13 22/46/13
f 17/47/8 16/48/8 13/40/8
f 21/49/6 2/50/6 1/51/6
f 22/52/7 3/53/7 2/54/7
f 23/55/2 4/56/2 3/57/2
f 21/58/14 20/59/14 17/47/14
f 1/9/4 2/60/4 3/10/4
f 8/12/5 7/61/5 6/13/5
f 5/15/6 6/62/6 10/16/6
f 6/18/7 7/63/7 11/19/7
f 11/21/2 7/64/2 8/22/2
f 1/24/8 4/65/8 24/25/8
f 9/27/8 12/66/8 8/28/8
f 10/30/9 11/67/9 15/31/9
f 9/33/10 10/68/10 14/34/10
f 13/35/6 14/34/6 18/36/6
f 14/32/7 15/31/7 19/38/7
f 13/40/11 16/48/11 12/41/11
f 22/43/12 18/39/12 19/38/12
f 21/45/13 17/37/13 18/36/13
f 17/47/8 20/59/8 16/48/8
f 21/49/6 22/69/6 2/50/6
f 22/52/7 23/70/7 3/53/7
f 23/55/2 24/71/2 4/56/2
f 21/58/14 24/72/14 20/59/14
